<svg width="87" height="109" viewBox="0 0 87 109" fill="none" xmlns="http://www.w3.org/2000/svg">
<g filter="url(#filter0_d_1810_9905)">
<rect x="15.2694" y="0.267151" width="62.1863" height="83.0986" rx="8" transform="rotate(8.41062 15.2694 0.267151)" fill="#DDDDDD"/>
<path d="M55.5014 55.7256L20.767 50.5899C17.2214 50.0482 18.0055 44.6431 21.5713 45.1514L56.3055 50.2871C59.8487 50.828 59.069 56.2341 55.5014 55.7256Z" fill="#DDDDDD"/>
<path d="M54.0168 65.7658L19.2824 60.6301C15.7368 60.0884 16.5209 54.6834 20.0867 55.1917L54.8209 60.3273C58.3641 60.8682 57.5844 66.2743 54.0168 65.7658Z" fill="#DDDDDD"/>
<path d="M52.5323 75.8061L17.7979 70.6704C14.2523 70.1287 15.0364 64.7236 18.6022 65.2319L53.3364 70.3676C56.8796 70.9085 56.0999 76.3146 52.5323 75.8061Z" fill="#DDDDDD"/>
<path d="M56.6426 43.668L23.1636 38.718C22.2484 38.5816 21.4247 38.0879 20.8731 37.3451C20.3215 36.6024 20.0871 35.6713 20.2214 34.7561L22.9925 16.0143C23.1288 15.0995 23.6226 14.276 24.3655 13.7247C25.1085 13.1734 26.0398 12.9392 26.9553 13.0735L60.4343 18.0235C61.3495 18.1599 62.1732 18.6536 62.7248 19.3964C63.2764 20.1391 63.5107 21.0702 63.3765 21.9854L60.6054 40.7272C60.469 41.642 59.9753 42.4655 59.2323 43.0168C58.4894 43.5681 57.5581 43.8023 56.6426 43.668Z" fill="#DDDDDD"/>
</g>
<g filter="url(#filter1_d_1810_9905)">
<rect x="23.5596" width="62.1863" height="83.0985" rx="8" transform="rotate(12.4034 23.5596 0)" fill="white"/>
<path d="M56.8323 73.1252L22.5399 65.5834C19.0406 64.7961 20.1991 59.4587 23.7209 60.2141L58.0132 67.7559C61.5101 68.5421 60.3559 73.8809 56.8323 73.1252Z" fill="#DDDDDD"/>
<path d="M54.6523 83.0377L20.3598 75.4959C16.8605 74.7086 18.0191 69.3713 21.5408 70.1266L55.8331 77.6684C59.33 78.4547 58.1758 83.7934 54.6523 83.0377Z" fill="#DDDDDD"/>
<path d="M58.8103 61.1764L25.7573 53.9071C24.8537 53.7076 24.0508 53.2285 23.5246 52.575C22.9984 51.9216 22.7919 51.1471 22.9504 50.4215L26.2179 35.5644C26.3784 34.8392 26.8908 34.2228 27.6426 33.8504C28.3944 33.4781 29.3243 33.3801 30.2282 33.578L63.2812 40.8472C64.1847 41.0468 64.9876 41.5259 65.5138 42.1793C66.0401 42.8328 66.2466 43.6073 66.088 44.3329L62.8206 59.19C62.66 59.9152 62.1476 60.5315 61.3958 60.9039C60.644 61.2763 59.7141 61.3743 58.8103 61.1764Z" fill="#DDDDDD"/>
</g>
<path fill-rule="evenodd" clip-rule="evenodd" d="M51.5724 13.755C55.4512 14.5714 58.1714 17.9293 58.4896 21.8302C57.2007 21.7622 56.0076 22.6794 55.7222 24.0351C55.4368 25.3909 56.1588 26.7115 57.3659 27.1683C55.5021 30.6102 51.659 32.5865 47.7802 31.77C43.0104 30.766 39.992 25.9188 41.0391 20.9443C42.0863 15.9694 46.8026 12.7509 51.5724 13.755V13.755Z" fill="#020051"/>
<path fill-rule="evenodd" clip-rule="evenodd" d="M40.5525 20.8418C41.6586 15.5873 46.6403 12.1873 51.6791 13.248C55.7058 14.0956 58.6437 17.5809 58.9861 21.7781L59.0349 22.3771L58.4562 22.3466C57.3985 22.2909 56.4382 23.0478 56.2089 24.1375C55.9794 25.2274 56.5531 26.3073 57.5434 26.6821L58.0856 26.8873L57.7993 27.4161C55.7939 31.1193 51.7003 33.1245 47.6736 32.2769C42.6348 31.2163 39.4465 26.0961 40.5525 20.8418ZM58.4896 21.8301C58.1714 17.9293 55.4512 14.5714 51.5724 13.7549C46.8026 12.7509 42.0864 15.9694 41.0392 20.9443C39.992 25.9188 43.0105 30.766 47.7803 31.77C51.6591 32.5865 55.5021 30.6102 57.3659 27.1683C56.1589 26.7115 55.4368 25.3909 55.7222 24.035C56.0076 22.6794 57.2007 21.7622 58.4896 21.8301Z" fill="white"/>
<path fill-rule="evenodd" clip-rule="evenodd" d="M56.1946 24.0929C56.4563 22.8496 57.6359 22.0444 58.828 22.2954C60.0198 22.5462 60.7748 23.7585 60.5131 25.0019C60.2514 26.245 59.0718 27.05 57.88 26.7992C56.6878 26.5484 55.933 25.336 56.1946 24.0929V24.0929Z" fill="#C40000"/>
<path fill-rule="evenodd" clip-rule="evenodd" d="M55.7079 23.9905C56.0285 22.4674 57.4737 21.4809 58.9346 21.7885C60.3954 22.096 61.3203 23.5813 60.9997 25.1044C60.6791 26.6272 59.2339 27.6136 57.7732 27.3061C56.3122 26.9988 55.3873 25.5135 55.7079 23.9905ZM60.513 25.002C60.7748 23.7586 60.0197 22.5463 58.8279 22.2954C57.6358 22.0445 56.4563 22.8497 56.1946 24.0929C55.9329 25.336 56.6877 26.5484 57.8799 26.7992C59.0717 27.0501 60.2514 26.245 60.513 25.002Z" fill="white"/>
<path fill-rule="evenodd" clip-rule="evenodd" d="M44.4444 17.8806C44.4732 17.7437 44.6373 17.6231 44.7708 17.6512L49.8534 18.7211C49.9936 18.7506 50.055 18.9137 50.0251 19.0554L48.4941 26.3289C48.465 26.4669 48.3657 26.5652 48.2091 26.5322L46.1478 26.0983C46.0103 26.0694 45.9654 25.9553 45.9974 25.8034L47.1367 20.391C47.2162 20.0135 46.6269 19.8989 46.5489 20.2691L45.41 25.6797C45.3791 25.8266 45.2437 25.908 45.1174 25.8814L43.1265 25.4623C42.9845 25.4324 42.881 25.3078 42.9133 25.1542L44.4444 17.8806V17.8806ZM49.0785 26.4671C49.0497 26.6037 49.0505 26.7093 49.1837 26.7374L54.2664 27.8073C54.4068 27.8368 54.4825 27.7525 54.5123 27.611L56.0434 20.3374C56.0725 20.1993 56.0672 20.0291 55.9108 19.9962L53.8494 19.5623C53.7118 19.5333 53.5788 19.6598 53.5468 19.8119L52.4075 25.2241C52.328 25.6019 51.7425 25.4689 51.8204 25.0987L52.9593 19.6882C52.9902 19.5413 52.9452 19.3719 52.8189 19.3453L50.8279 18.9262C50.6861 18.8964 50.6419 19.04 50.6095 19.1936L49.0785 26.4671V26.4671Z" fill="white"/>
<path fill-rule="evenodd" clip-rule="evenodd" d="M58.4009 25.5056L58.067 25.4353L58.2084 24.7638C58.2383 24.6217 58.2505 24.5285 58.2449 24.4842C58.2395 24.4391 58.223 24.4015 58.1954 24.3715C58.1686 24.3418 58.1326 24.3221 58.0875 24.3126C58.0296 24.3004 57.9743 24.306 57.9214 24.3294C57.8685 24.3528 57.8276 24.3899 57.7987 24.4407C57.7706 24.4917 57.7411 24.5908 57.7101 24.7378L57.5847 25.3338L57.2508 25.2635L57.5278 23.9476L57.8379 24.0129L57.7972 24.2062C57.9386 24.0807 58.0929 24.0355 58.26 24.0707C58.3336 24.0862 58.398 24.1144 58.4531 24.1554C58.5083 24.1955 58.5469 24.2402 58.5687 24.2897C58.5914 24.3393 58.6029 24.3926 58.6033 24.4496C58.6045 24.5068 58.5944 24.5862 58.573 24.6878L58.4009 25.5056" fill="white"/>
<path fill-rule="evenodd" clip-rule="evenodd" d="M58.7407 25.5771L59.123 23.7607L59.4569 23.831L59.0745 25.6474L58.7407 25.5771" fill="white"/>
<defs>
<filter id="filter0_d_1810_9905" x="-0.885132" y="0.267151" width="81.6721" height="107.301" filterUnits="userSpaceOnUse" color-interpolation-filters="sRGB">
<feFlood flood-opacity="0" result="BackgroundImageFix"/>
<feColorMatrix in="SourceAlpha" type="matrix" values="0 0 0 0 0 0 0 0 0 0 0 0 0 0 0 0 0 0 127 0" result="hardAlpha"/>
<feOffset dy="12"/>
<feGaussianBlur stdDeviation="2"/>
<feComposite in2="hardAlpha" operator="out"/>
<feColorMatrix type="matrix" values="0 0 0 0 0 0 0 0 0 0 0 0 0 0 0 0 0 0 0.05 0"/>
<feBlend mode="normal" in2="BackgroundImageFix" result="effect1_dropShadow_1810_9905"/>
<feBlend mode="normal" in="SourceGraphic" in2="effect1_dropShadow_1810_9905" result="shape"/>
</filter>
<filter id="filter1_d_1810_9905" x="1.71057" y="0" width="86.5839" height="110.516" filterUnits="userSpaceOnUse" color-interpolation-filters="sRGB">
<feFlood flood-opacity="0" result="BackgroundImageFix"/>
<feColorMatrix in="SourceAlpha" type="matrix" values="0 0 0 0 0 0 0 0 0 0 0 0 0 0 0 0 0 0 127 0" result="hardAlpha"/>
<feOffset dy="12"/>
<feGaussianBlur stdDeviation="2"/>
<feComposite in2="hardAlpha" operator="out"/>
<feColorMatrix type="matrix" values="0 0 0 0 0 0 0 0 0 0 0 0 0 0 0 0 0 0 0.05 0"/>
<feBlend mode="normal" in2="BackgroundImageFix" result="effect1_dropShadow_1810_9905"/>
<feBlend mode="normal" in="SourceGraphic" in2="effect1_dropShadow_1810_9905" result="shape"/>
</filter>
</defs>
</svg>
